HIERARCHY
ROOT Hips
{
	OFFSET -3.958830 18.904000 13.208200
	CHANNELS 6 Xposition Yposition Zposition Zrotation Yrotation Xrotation 
	JOINT LHipJoint
	{
		OFFSET 0.000000 0.000000 0.000000
		CHANNELS 3 Zrotation Yrotation Xrotation
		JOINT LeftUpLeg
		{
			OFFSET 1.800000 -1.400000 0.085000
			CHANNELS 3 Zrotation Yrotation Xrotation
			JOINT LeftLeg
			{
				OFFSET 2.215000 -6.000000 0.000000
				CHANNELS 3 Zrotation Yrotation Xrotation
				JOINT LeftFoot
				{
					OFFSET 2.500000 -6.900000 0.000000
					CHANNELS 3 Zrotation Yrotation Xrotation
					JOINT LeftToeBase
					{
						OFFSET 0.200000 -0.500000 1.950000
						CHANNELS 3 Zrotation Yrotation Xrotation
						End Site
						{
							OFFSET 0.000000 0.000000 0.000000
						}
					}
				}
			}
		}
	}
	JOINT RHipJoint
	{
		OFFSET 0.000000 0.000000 0.000000
		CHANNELS 3 Zrotation Yrotation Xrotation
		JOINT RightUpLeg
		{
			OFFSET -1.800000 -1.400000 0.085000
			CHANNELS 3 Zrotation Yrotation Xrotation
			JOINT RightLeg
			{
				OFFSET -2.215000 -6.000000 0.000000
				CHANNELS 3 Zrotation Yrotation Xrotation
				JOINT RightFoot
				{
					OFFSET -2.500000 -6.900000 0.000000
					CHANNELS 3 Zrotation Yrotation Xrotation
					JOINT RightToeBase
					{
						OFFSET -0.200000 -0.500000 1.950000
						CHANNELS 3 Zrotation Yrotation Xrotation
						End Site
						{
							OFFSET 0.000000 0.000000 0.000000
						}
					}
				}
			}
		}
	}
	JOINT LowerBack
	{
		OFFSET 0.000000 0.000000 0.000000
		CHANNELS 3 Zrotation Yrotation Xrotation
		JOINT Spine
		{
			OFFSET -0.087000 1.940000 -0.288900
			CHANNELS 3 Zrotation Yrotation Xrotation
			JOINT Spine1
			{
				OFFSET 0.000000 1.950000 0.060000
				CHANNELS 3 Zrotation Yrotation Xrotation
				JOINT Neck
				{
					OFFSET 0.000000 0.000000 0.000000
					CHANNELS 3 Zrotation Yrotation Xrotation
					JOINT Neck1
					{
						OFFSET 0.000000 1.600000 0.340000
						CHANNELS 3 Zrotation Yrotation Xrotation
						JOINT Head
						{
							OFFSET 0.000000 1.667000 -0.240000
							CHANNELS 3 Zrotation Yrotation Xrotation
							End Site
							{
								OFFSET 0.000000 0.000000 0.000000
							}
						}
					}
				}
				JOINT LeftShoulder
				{
					OFFSET 0.000000 0.000000 0.000000
					CHANNELS 3 Zrotation Yrotation Xrotation
					JOINT LeftArm
					{
						OFFSET 2.700000 1.550000 -0.730000
						CHANNELS 3 Zrotation Yrotation Xrotation
						JOINT LeftForeArm
						{
							OFFSET 5.450000 0.000000 0.000000
							CHANNELS 3 Zrotation Yrotation Xrotation
							JOINT LeftHand
							{
								OFFSET 3.450000 0.000000 0.000000
								CHANNELS 3 Zrotation Yrotation Xrotation
								JOINT LeftHandIndex1
								{
									OFFSET 0.750000 0.000000 0.000000
									CHANNELS 3 Zrotation Yrotation Xrotation
									End Site
									{
										OFFSET 0.000000 0.000000 0.000000
									}
								}
							}
						}
					}
				}
				JOINT RightShoulder
				{
					OFFSET 0.000000 0.000000 0.000000
					CHANNELS 3 Zrotation Yrotation Xrotation
					JOINT RightArm
					{
						OFFSET -2.700000 1.550000 -0.730000
						CHANNELS 3 Zrotation Yrotation Xrotation
						JOINT RightForeArm
						{
							OFFSET -5.450000 0.000000 0.000000
							CHANNELS 3 Zrotation Yrotation Xrotation
							JOINT RightHand
							{
								OFFSET -3.450000 0.000000 0.000000
								CHANNELS 3 Zrotation Yrotation Xrotation
								JOINT RightHandIndex1
								{
									OFFSET -0.750000 0.000000 0.000000
									CHANNELS 3 Zrotation Yrotation Xrotation
									End Site
									{
										OFFSET 0.000000 0.000000 0.000000
									}
								}
							}
						}
					}
				}
			}
		}
	}
}
MOTION
Frames: 8
Frame Time: 0.016667
0.536760 16.905050 -1.533410 -5.917662 -0.643224 0.760422 -14.993290 13.268262 3.242269 2.034005 0.132544 0.138911 -5.730008 4.486513 3.795067 -0.347029 3.998703 3.331411 0.904410 0.439050 0.851490 18.426997 -10.776286 3.317520 3.026263 -0.539944 -3.564313 5.076900 -4.235067 4.872321 -0.747040 -3.273624 3.358091 0.150790 -0.201910 0.312010 -4.046565 -1.612298 -8.192268 13.375358 -0.612389 7.069436 -5.615673 0.287900 9.493201 4.765338 -2.331040 -16.606613 -7.941211 4.690729 51.691297 -2.175550 3.278270 -18.181610 -36.768597 -25.003236 10.007502 -40.140968 -3.835203 -3.849800 -11.190235 -23.706981 -0.162819 -3.037214 3.050931 0.982470 -0.224870 0.400030 0.265030 27.376884 29.312911 12.167301 44.448001 9.539059 -3.384715 11.531991 21.732670 0.946092 2.082150 -1.320341 -0.051600 0.101070 -0.374310 -0.354430 
0.538960 16.907080 -1.534620 -5.888566 -0.715330 0.668159 -14.987904 13.274869 3.254712 1.912872 0.153372 0.257287 -5.595800 4.457926 3.736893 -0.351696 3.990442 3.326120 0.900420 0.439930 0.845410 18.429046 -10.780593 3.320585 2.982567 -0.558992 -3.473327 5.020337 -4.245329 4.855570 -0.753586 -3.275533 3.356696 0.147840 -0.208000 0.316170 -4.056331 -1.615107 -8.209558 13.421283 -0.660524 7.143948 -5.964189 0.321753 9.487873 4.885994 -2.164367 -16.757031 -7.647807 4.711874 52.377738 -2.289300 3.408920 -18.408950 -36.819042 -25.100844 10.128310 -39.946420 -3.564446 -3.992149 -10.999086 -23.911041 -0.199502 -3.031559 3.050988 0.991300 -0.227440 0.408990 0.260410 27.137853 29.372098 12.180958 44.788704 9.593596 -3.500430 11.638717 22.174748 0.974004 2.074674 -1.310568 -0.048750 0.100410 -0.366130 -0.356250 
0.543740 16.907240 -1.533830 -5.940750 -0.724531 0.640685 -14.976232 13.277125 3.263824 1.848945 0.152361 0.347139 -5.478823 4.417550 3.598600 -0.342650 3.968028 3.319855 0.914440 0.455000 0.858280 18.439941 -10.774890 3.321728 2.888743 -0.574526 -3.407442 5.138863 -4.261404 4.759038 -0.766405 -3.275978 3.347120 0.146970 -0.233810 0.326110 -4.089993 -1.630269 -8.214598 13.766709 -0.739990 7.152564 -6.270842 0.302858 9.333955 4.978194 -2.225220 -16.789978 -7.863218 4.814653 52.848176 -2.436340 3.465490 -18.840510 -36.812070 -24.931979 10.116712 -40.022768 -3.429485 -4.053261 -10.871553 -24.008128 -0.219969 -3.016392 3.068879 0.996140 -0.241990 0.426130 0.254160 26.894784 29.268479 12.136839 45.093963 9.632135 -3.509756 11.808426 22.342125 1.012664 2.083466 -1.313458 -0.029160 0.081070 -0.371900 -0.357960 
0.547650 16.912100 -1.533350 -6.067011 -0.744627 0.636061 -14.968957 13.310874 3.268771 1.976023 0.137917 0.212859 -5.558001 4.447582 3.737154 -0.334948 3.951069 3.320792 0.922280 0.470380 0.863640 18.438438 -10.760980 3.341497 2.924392 -0.583054 -3.375167 5.318988 -4.266316 4.596256 -0.778990 -3.257231 3.353812 0.147030 -0.249470 0.320100 -4.097608 -1.699065 -8.249600 14.058986 -0.855986 7.369824 -6.351686 0.261450 8.734160 4.989745 -2.325584 -16.764505 -8.166600 4.969525 53.441889 -2.209280 3.472030 -19.507380 -37.251333 -24.486337 9.996478 -39.962597 -3.037463 -4.151417 -11.058142 -24.132837 -0.173833 -2.992563 3.067196 1.007280 -0.259940 0.443190 0.254970 27.261911 28.904116 12.040162 44.912945 9.406276 -3.431036 12.082275 22.038701 1.084952 2.095650 -1.298944 -0.022180 0.084410 -0.380110 -0.355780 
0.549810 16.916600 -1.534130 -6.029583 -0.701840 0.522544 -14.979642 13.345315 3.303827 2.031323 0.157682 0.357064 -5.768085 4.477860 3.621392 -0.318000 3.962607 3.311575 0.948390 0.495900 0.891870 18.416367 -10.749779 3.346919 2.764824 -0.581803 -3.321921 5.476044 -4.300269 4.627775 -0.807870 -3.237529 3.350026 0.146890 -0.276050 0.332400 -4.051662 -1.775469 -8.309832 13.958384 -0.935842 7.692171 -6.323404 0.254216 8.396353 5.049652 -2.302948 -16.965424 -8.240573 5.009553 54.427503 -2.103640 3.479590 -20.734090 -37.496734 -24.397157 10.027155 -39.764086 -2.641121 -4.302387 -11.491848 -24.436525 -0.105832 -2.957067 3.070282 1.035410 -0.286610 0.481090 0.258160 27.401245 28.906265 12.056793 44.919937 9.335280 -3.353716 12.068683 21.675643 1.110896 2.108103 -1.283440 -0.005420 0.081820 -0.397500 -0.356000 
0.554540 16.914310 -1.539090 -6.208766 -0.533331 0.458577 -14.957801 13.354790 3.289011 2.190381 0.136890 0.301311 -5.690243 4.492814 3.795737 -0.316163 3.957449 3.314203 0.948940 0.495850 0.899260 18.435893 -10.761863 3.344306 2.892541 -0.566264 -3.395501 5.472760 -4.326630 4.973549 -0.804799 -3.229335 3.354961 0.147350 -0.281570 0.325340 -4.114320 -1.767311 -8.289357 14.477813 -1.099815 7.758628 -6.720450 0.181269 8.517937 5.107192 -2.302388 -17.028469 -8.229100 5.084039 54.329814 -2.159410 3.603290 -20.720630 -37.188632 -24.554361 10.143098 -39.816568 -2.543556 -4.482811 -11.671028 -24.926612 -0.073234 -2.950272 3.071746 1.031810 -0.289200 0.481060 0.256300 26.896801 29.040345 12.053282 45.310088 9.537990 -3.400374 11.942616 21.896235 1.083665 2.111649 -1.281312 -0.005970 0.084210 -0.401640 -0.359340 
0.555370 16.917050 -1.537770 -6.147064 -0.466299 0.396081 -14.959735 13.387034 3.300295 2.117194 0.143011 0.303030 -5.579985 4.494890 3.949513 -0.326712 3.955593 3.317656 0.943120 0.487690 0.896300 18.424255 -10.774089 3.341057 2.843897 -0.550867 -3.430740 5.479644 -4.370340 5.360406 -0.804050 -3.222256 3.360015 0.144820 -0.279040 0.316820 -4.095905 -1.802152 -8.310115 14.366734 -1.133738 7.911606 -6.751551 0.211785 8.231834 5.082722 -2.290385 -17.120820 -8.263359 5.140285 54.812593 -1.879180 3.563650 -20.897880 -37.314580 -24.442542 10.151960 -39.730836 -2.177888 -4.647569 -11.860387 -25.315474 -0.040683 -2.939351 3.059977 1.047120 -0.295110 0.482920 0.256110 27.067250 28.948949 12.080113 45.317287 9.293986 -3.438079 12.074147 21.810130 1.112076 2.109657 -1.265746 -0.018160 0.097200 -0.397860 -0.363230 
0.554790 16.919320 -1.531690 -6.060693 -0.270159 0.293550 -14.970916 13.407305 3.295496 2.044331 0.154272 0.341465 -5.359701 4.484987 4.151716 -0.340596 3.940612 3.319088 0.944220 0.492980 0.900650 18.410467 -10.774347 3.346758 2.834754 -0.597537 -3.205789 5.380754 -4.368615 5.334059 -0.812381 -3.225486 3.359043 0.150290 -0.289230 0.304190 -4.063246 -1.830793 -8.317847 14.115940 -1.157478 7.925582 -6.651225 0.171691 8.094032 5.086726 -2.249675 -17.102786 -8.240781 5.049806 55.257513 -1.874090 3.485970 -21.460850 -37.299049 -24.310425 10.069568 -39.804640 -2.263891 -4.484343 -11.842010 -24.871149 -0.045038 -2.934102 3.034325 1.061560 -0.306970 0.490460 0.252210 27.073274 28.789474 12.029384 45.462229 9.253650 -3.348707 12.020668 21.495506 1.108776 2.114076 -1.247014 -0.027050 0.109270 -0.398410 -0.368970 
